<svg xmlns="http://www.w3.org/2000/svg" width="78" height="19">
    <path fill="#FFF" fill-rule="evenodd" d="M71.347 18.994h-2.961l2.033-4.491-4.354-10.179h3.139l1.657 4.47 1.039 2.917 1.127-2.854 1.989-4.533H78l-6.653 14.67zM61.756 0h2.674v14.671h-2.674V0zm-4.951 13.16c-.619 1.217-2.321 1.805-3.537 1.825-3.226.021-5.613-1.867-5.613-5.498 0-3.568 2.497-5.436 5.68-5.415 1.458 0 2.851.65 3.47 1.679l.088-1.427h2.586v10.347h-2.542l-.132-1.511zm-3.227-6.801c-1.79 0-3.227 1.155-3.227 3.128 0 1.972 1.437 3.148 3.227 3.148 4.243 0 4.243-6.276 0-6.276zM41.864 8.311c2.055.126 4.663.567 4.663 3.316 0 1.826-1.569 3.4-4.685 3.4-1.724 0-3.448-.272-5.039-1.847l1.326-1.825c.773.818 2.541 1.427 3.757 1.448 1.017.021 1.967-.483 1.967-1.239 0-.713-.619-1.007-2.166-1.091-2.055-.147-4.508-.86-4.508-3.211 0-2.393 2.608-3.232 4.596-3.232 1.702 0 2.984.315 4.244 1.364l-1.503 1.679c-.774-.693-1.658-.923-2.696-.923-1.282 0-1.989.377-1.989 1.028 0 .672.641 1.049 2.033 1.133zm-9.438 4.974c-1.126 1.05-2.165 1.553-3.69 1.553-2.608 0-4.509-1.867-4.509-5.078V4.324h2.696v5.415c0 1.574.906 2.77 2.63 2.77 1.658 0 2.785-1.322 2.785-2.896V4.324h2.675v10.368h-2.41l-.177-1.407zM19.74 13.16c-.619 1.217-2.321 1.805-3.536 1.825-3.227.021-5.614-1.867-5.614-5.498 0-3.568 2.497-5.436 5.68-5.415 1.459 0 2.851.65 3.47 1.679l.088-1.427h2.586v10.347h-2.542l-.132-1.511zm-3.227-6.801c-1.79 0-3.227 1.155-3.227 3.128 0 1.972 1.437 3.148 3.227 3.148 4.243 0 4.243-6.276 0-6.276zM5.794 12.53c.862 0 1.724-.231 2.387-.861l1.812 1.679c-1.26 1.176-2.586 1.637-4.199 1.637-3.16 0-5.79-1.805-5.79-5.477 0-3.673 2.63-5.478 5.79-5.478 1.547 0 2.74.42 3.934 1.532l-1.702 1.7a3.41 3.41 0 0 0-2.188-.819c-1.812 0-3.138 1.26-3.138 3.065 0 1.972 1.414 3.022 3.094 3.022z"/>
</svg>
